<svg xmlns="http://www.w3.org/2000/svg" xmlns:xlink="http://www.w3.org/1999/xlink" width="500" zoomAndPan="magnify" viewBox="0 0 375 112.499997" height="150" preserveAspectRatio="xMidYMid meet" version="1.0"><defs><g><g id="id1"/></g><clipPath id="id2"><path d="M 152.191406 50.191406 L 223.125 50.191406 L 223.125 107.683594 L 152.191406 107.683594 Z M 152.191406 50.191406 " clip-rule="nonzero"/></clipPath><clipPath id="id3"><path d="M 214.558594 81.851562 C 214.558594 79.488281 216.476562 77.585938 218.847656 77.585938 C 221.21875 77.585938 223.125 79.5 223.125 81.851562 C 223.125 84.214844 221.207031 86.121094 218.847656 86.121094 C 218.109375 86.121094 217.40625 85.933594 216.796875 85.601562 L 213.710938 90.132812 C 214.4375 90.773438 214.902344 91.707031 214.902344 92.761719 C 214.902344 94.6875 213.335938 96.25 211.40625 96.25 C 209.476562 96.25 207.910156 94.6875 207.910156 92.761719 C 207.910156 91.441406 208.652344 90.289062 209.742188 89.707031 L 208.871094 87.503906 C 208.671875 87.550781 208.464844 87.570312 208.253906 87.570312 C 206.722656 87.570312 205.488281 86.328125 205.488281 84.8125 C 205.488281 83.28125 206.730469 82.039062 208.253906 82.039062 C 208.507812 82.039062 208.761719 82.070312 208.992188 82.136719 L 210.789062 78.15625 C 210.347656 77.816406 210.0625 77.289062 210.0625 76.695312 C 210.0625 75.671875 210.890625 74.847656 211.914062 74.847656 C 212.367188 74.847656 212.773438 75 213.09375 75.273438 L 216.3125 72.832031 C 216.082031 72.414062 215.949219 71.921875 215.949219 71.402344 C 215.949219 70.546875 216.324219 69.765625 216.910156 69.226562 L 214.925781 66.3125 C 214.550781 66.488281 214.128906 66.585938 213.6875 66.585938 C 212.652344 66.585938 211.75 66.035156 211.253906 65.222656 L 208.230469 66.488281 C 208.230469 66.53125 208.242188 66.574219 208.242188 66.609375 C 208.242188 67.300781 207.734375 67.871094 207.074219 67.984375 L 206.667969 70.910156 C 207.679688 71.226562 208.40625 72.171875 208.40625 73.285156 C 208.40625 74.660156 207.285156 75.78125 205.90625 75.78125 C 204.980469 75.78125 204.175781 75.273438 203.734375 74.527344 L 200.152344 75.847656 C 200.152344 75.859375 200.152344 75.867188 200.152344 75.890625 C 200.152344 76.628906 199.554688 77.222656 198.816406 77.222656 C 198.738281 77.222656 198.652344 77.210938 198.574219 77.199219 L 196.753906 80.5 C 196.976562 80.695312 197.164062 80.9375 197.285156 81.214844 L 202.3125 80.160156 C 202.386719 79.5 202.949219 78.980469 203.632812 78.980469 C 204.371094 78.980469 204.96875 79.574219 204.96875 80.3125 C 204.96875 80.992188 204.449219 81.554688 203.789062 81.632812 L 202.3125 88.671875 C 203.875 89.175781 205 90.640625 205 92.367188 C 205 94.511719 203.257812 96.261719 201.097656 96.261719 C 201.03125 96.261719 200.964844 96.261719 200.898438 96.261719 L 200.316406 99.867188 C 200.84375 100.109375 201.21875 100.648438 201.21875 101.277344 C 201.21875 101.980469 200.757812 102.5625 200.117188 102.761719 L 200.171875 105.488281 C 200.582031 105.640625 200.878906 106.050781 200.878906 106.511719 C 200.878906 107.117188 200.382812 107.609375 199.777344 107.609375 C 199.167969 107.609375 198.671875 107.117188 198.671875 106.511719 C 198.671875 106.402344 198.695312 106.292969 198.726562 106.179688 L 196.796875 104.574219 C 196.554688 104.742188 196.257812 104.839844 195.929688 104.839844 C 195.078125 104.839844 194.394531 104.15625 194.394531 103.3125 C 194.394531 102.707031 194.75 102.1875 195.253906 101.9375 L 194.925781 100.109375 C 194.902344 100.109375 194.871094 100.109375 194.847656 100.109375 C 193.304688 100.109375 192.046875 98.855469 192.046875 97.316406 C 192.046875 95.777344 193.304688 94.523438 194.847656 94.523438 C 195.585938 94.523438 196.246094 94.808594 196.742188 95.269531 L 197.8125 94.421875 C 197.425781 93.820312 197.207031 93.113281 197.207031 92.34375 C 197.207031 91.609375 197.417969 90.914062 197.78125 90.320312 L 195.046875 88.230469 C 194.835938 88.375 194.582031 88.460938 194.308594 88.460938 C 194.007812 88.460938 193.734375 88.363281 193.511719 88.199219 L 191.78125 89.398438 C 192.089844 89.957031 192.257812 90.597656 192.257812 91.277344 C 192.257812 93.457031 190.492188 95.214844 188.308594 95.214844 C 186.457031 95.214844 184.914062 93.949219 184.484375 92.234375 L 181.527344 92.640625 C 181.496094 94.039062 180.347656 95.160156 178.9375 95.160156 C 177.503906 95.160156 176.347656 94.003906 176.347656 92.574219 C 176.347656 91.144531 177.503906 89.992188 178.9375 89.992188 C 179.203125 89.992188 179.457031 90.035156 179.6875 90.101562 L 182.839844 83.734375 C 182.035156 83.195312 181.484375 82.3125 181.386719 81.300781 L 178.785156 81.214844 C 178.597656 81.699219 178.132812 82.039062 177.582031 82.039062 C 177.4375 82.039062 177.308594 82.015625 177.175781 81.972656 L 175.089844 84.667969 C 175.742188 85.304688 176.136719 86.183594 176.136719 87.164062 C 176.136719 89.101562 174.5625 90.671875 172.621094 90.671875 C 170.988281 90.671875 169.609375 89.550781 169.214844 88.042969 L 166.800781 88.363281 C 166.753906 89.738281 165.621094 90.847656 164.230469 90.847656 C 162.808594 90.847656 161.664062 89.707031 161.664062 88.285156 C 161.664062 86.945312 162.699219 85.84375 164.023438 85.734375 L 164.253906 82.917969 C 163.789062 82.722656 163.46875 82.257812 163.46875 81.71875 C 163.46875 81.003906 164.054688 80.410156 164.78125 80.410156 C 164.949219 80.410156 165.089844 80.445312 165.234375 80.488281 L 170.164062 74.4375 C 170.042969 74.242188 169.964844 74 169.964844 73.746094 C 169.964844 73.394531 170.105469 73.074219 170.328125 72.84375 L 169.566406 71.371094 C 169.179688 71.511719 168.773438 71.589844 168.34375 71.589844 C 167.726562 71.589844 167.140625 71.425781 166.644531 71.148438 L 163.679688 75.253906 C 163.988281 75.59375 164.175781 76.054688 164.175781 76.5625 C 164.175781 77.640625 163.292969 78.519531 162.214844 78.519531 C 161.992188 78.519531 161.773438 78.488281 161.574219 78.410156 L 158.476562 83.445312 C 159.179688 84.019531 159.621094 84.886719 159.621094 85.867188 C 159.621094 87.59375 158.222656 88.988281 156.492188 88.988281 C 154.761719 88.988281 153.359375 87.59375 153.359375 85.867188 C 153.359375 84.457031 154.296875 83.269531 155.578125 82.875 L 155.332031 81.390625 C 155.3125 81.390625 155.300781 81.390625 155.277344 81.390625 C 153.667969 81.390625 152.367188 80.09375 152.367188 78.488281 C 152.367188 76.890625 153.65625 75.59375 155.257812 75.582031 L 155.433594 74.296875 C 153.570312 73.84375 152.179688 72.164062 152.179688 70.160156 C 152.179688 67.816406 154.089844 65.914062 156.4375 65.914062 C 158.386719 65.914062 160.042969 67.222656 160.539062 69.015625 L 164.828125 68.257812 C 164.828125 68.191406 164.828125 68.136719 164.828125 68.070312 C 164.828125 67.476562 164.980469 66.914062 165.234375 66.421875 L 162.070312 64.210938 C 161.71875 64.539062 161.242188 64.738281 160.726562 64.738281 C 159.632812 64.738281 158.742188 63.847656 158.742188 62.757812 C 158.742188 61.667969 159.632812 60.777344 160.726562 60.777344 C 161.816406 60.777344 162.710938 61.667969 162.710938 62.757812 C 162.710938 63.03125 162.65625 63.285156 162.554688 63.515625 L 165.71875 65.726562 C 166.171875 65.222656 166.777344 64.847656 167.449219 64.671875 L 167.4375 61.472656 C 166.25 61.273438 165.34375 60.25 165.34375 59.007812 C 165.34375 57.632812 166.46875 56.511719 167.847656 56.511719 C 168.664062 56.511719 169.378906 56.894531 169.832031 57.488281 L 173.832031 55.398438 C 173.734375 55.101562 173.679688 54.796875 173.679688 54.464844 C 173.679688 52.890625 174.957031 51.605469 176.546875 51.605469 C 178.121094 51.605469 179.414062 52.882812 179.414062 54.464844 C 179.414062 55.511719 178.851562 56.433594 178 56.929688 L 179.324219 60.183594 C 179.535156 60.140625 179.742188 60.109375 179.976562 60.109375 C 180.492188 60.109375 180.988281 60.25 181.40625 60.503906 L 184.40625 56.875 C 183.722656 56.167969 183.292969 55.214844 183.292969 54.15625 C 183.292969 52.011719 185.035156 50.261719 187.195312 50.261719 C 189.347656 50.261719 191.097656 52 191.097656 54.15625 C 191.097656 55.113281 190.746094 55.992188 190.171875 56.664062 L 193.148438 59.789062 C 193.324219 59.699219 193.523438 59.65625 193.734375 59.65625 C 193.789062 59.65625 193.84375 59.65625 193.886719 59.667969 L 195.476562 56.246094 C 194.824219 55.796875 194.394531 55.046875 194.394531 54.191406 C 194.394531 52.816406 195.519531 51.695312 196.898438 51.695312 C 198.277344 51.695312 199.402344 52.816406 199.402344 54.191406 C 199.402344 54.5 199.34375 54.796875 199.246094 55.058594 L 201.769531 56.523438 C 202.398438 55.695312 203.402344 55.15625 204.515625 55.15625 C 206.421875 55.15625 207.96875 56.699219 207.96875 58.601562 C 207.96875 59.0625 207.878906 59.503906 207.714844 59.898438 L 211.441406 61.976562 C 211.957031 61.304688 212.773438 60.867188 213.699219 60.867188 C 215.277344 60.867188 216.554688 62.140625 216.554688 63.714844 C 216.554688 64.539062 216.203125 65.289062 215.640625 65.804688 L 217.625 68.71875 C 218.011719 68.53125 218.453125 68.421875 218.914062 68.421875 C 220.546875 68.421875 221.871094 69.742188 221.871094 71.371094 C 221.871094 72.996094 220.546875 74.316406 218.914062 74.316406 C 218.109375 74.316406 217.371094 74 216.84375 73.472656 L 213.621094 75.914062 C 213.722656 76.144531 213.777344 76.398438 213.777344 76.660156 C 213.777344 77.683594 212.949219 78.507812 211.925781 78.507812 C 211.804688 78.507812 211.683594 78.496094 211.574219 78.476562 L 209.773438 82.457031 C 210.535156 82.953125 211.042969 83.808594 211.042969 84.777344 C 211.042969 85.789062 210.492188 86.679688 209.675781 87.164062 L 210.546875 89.363281 C 210.832031 89.289062 211.121094 89.253906 211.429688 89.253906 C 212.003906 89.253906 212.554688 89.398438 213.027344 89.640625 L 216.113281 85.109375 C 215.175781 84.328125 214.582031 83.148438 214.582031 81.828125 Z M 168.300781 64.582031 L 168.289062 61.480469 C 169.46875 61.285156 170.359375 60.25 170.359375 59.019531 C 170.359375 58.753906 170.316406 58.492188 170.238281 58.25 L 174.242188 56.160156 C 174.761719 56.875 175.609375 57.335938 176.558594 57.335938 C 176.789062 57.335938 177.007812 57.3125 177.230469 57.257812 L 178.550781 60.515625 C 177.738281 61 177.183594 61.890625 177.183594 62.914062 C 177.183594 64.144531 177.988281 65.1875 179.105469 65.5625 L 178.507812 69.082031 C 178.429688 69.082031 178.355469 69.070312 178.265625 69.070312 C 176.082031 69.070312 174.320312 70.832031 174.320312 73.007812 C 174.320312 75.1875 176.082031 76.945312 178.265625 76.945312 C 180.339844 76.945312 182.035156 75.351562 182.203125 73.328125 L 184.484375 73.261719 C 184.671875 73.757812 185.144531 74.109375 185.707031 74.109375 C 186.105469 74.109375 186.457031 73.933594 186.699219 73.648438 L 189.6875 74.835938 C 189.65625 75.011719 189.632812 75.1875 189.632812 75.363281 C 189.632812 76.75 190.769531 77.882812 192.15625 77.882812 C 193.546875 77.882812 194.683594 76.75 194.683594 75.363281 C 194.683594 74.757812 194.460938 74.195312 194.109375 73.757812 L 197.273438 70.105469 C 197.824219 70.46875 198.484375 70.6875 199.191406 70.6875 C 201.097656 70.6875 202.640625 69.148438 202.640625 67.246094 C 202.640625 65.34375 201.097656 63.804688 199.191406 63.804688 C 198.476562 63.804688 197.800781 64.023438 197.25 64.398438 L 194.890625 61.703125 C 195.011719 61.503906 195.078125 61.261719 195.078125 61.007812 C 195.078125 60.625 194.914062 60.273438 194.648438 60.019531 L 196.226562 56.597656 C 196.433594 56.652344 196.65625 56.6875 196.875 56.6875 C 197.648438 56.6875 198.34375 56.335938 198.792969 55.785156 L 201.320312 57.246094 C 201.144531 57.664062 201.042969 58.117188 201.042969 58.601562 C 201.042969 60.503906 202.585938 62.042969 204.496094 62.042969 C 204.683594 62.042969 204.867188 62.03125 205.046875 62 L 206.039062 65.417969 C 205.664062 65.671875 205.421875 66.089844 205.421875 66.574219 C 205.421875 67.136719 205.75 67.609375 206.214844 67.839844 L 205.804688 70.765625 C 204.460938 70.808594 203.378906 71.910156 203.378906 73.261719 C 203.378906 73.414062 203.390625 73.570312 203.425781 73.722656 L 199.839844 75.042969 C 199.597656 74.734375 199.222656 74.550781 198.804688 74.550781 C 198.066406 74.550781 197.472656 75.144531 197.472656 75.878906 C 197.472656 76.230469 197.605469 76.539062 197.824219 76.78125 L 196.003906 80.082031 C 195.816406 80.027344 195.621094 79.992188 195.421875 79.992188 C 194.296875 79.992188 193.390625 80.894531 193.390625 82.015625 C 193.390625 83.140625 194.296875 84.039062 195.421875 84.039062 C 196.546875 84.039062 197.449219 83.140625 197.449219 82.015625 L 202.476562 80.949219 C 202.597656 81.148438 202.753906 81.3125 202.949219 81.421875 L 201.472656 88.460938 C 201.351562 88.453125 201.21875 88.441406 201.085938 88.441406 C 199.984375 88.441406 198.980469 88.902344 198.265625 89.640625 L 195.53125 87.550781 C 195.574219 87.417969 195.609375 87.261719 195.609375 87.121094 C 195.609375 86.382812 195.011719 85.789062 194.273438 85.789062 C 193.535156 85.789062 192.941406 86.382812 192.941406 87.121094 C 192.941406 87.253906 192.960938 87.375 192.996094 87.496094 L 191.265625 88.691406 C 190.535156 87.855469 189.46875 87.328125 188.277344 87.328125 C 186.09375 87.328125 184.328125 89.089844 184.328125 91.265625 C 184.328125 91.3125 184.328125 91.355469 184.328125 91.386719 L 181.375 91.792969 C 181.210938 91.257812 180.855469 90.78125 180.40625 90.464844 L 183.558594 84.097656 C 183.886719 84.207031 184.253906 84.273438 184.628906 84.273438 C 186.445312 84.273438 187.921875 82.796875 187.921875 80.984375 C 187.921875 79.167969 186.445312 77.707031 184.628906 77.707031 C 182.996094 77.707031 181.640625 78.894531 181.375 80.457031 L 178.773438 80.367188 C 178.609375 79.839844 178.121094 79.464844 177.550781 79.464844 C 176.84375 79.464844 176.257812 80.039062 176.257812 80.753906 C 176.257812 81.015625 176.335938 81.246094 176.46875 81.457031 L 174.386719 84.152344 C 173.855469 83.832031 173.238281 83.65625 172.589844 83.65625 C 170.648438 83.65625 169.070312 85.230469 169.070312 87.164062 C 169.070312 87.175781 169.070312 87.199219 169.070312 87.207031 L 166.65625 87.527344 C 166.390625 86.679688 165.699219 86.007812 164.828125 85.789062 L 165.058594 82.972656 C 165.632812 82.832031 166.050781 82.3125 166.050781 81.710938 C 166.050781 81.457031 165.972656 81.214844 165.851562 81.015625 L 170.78125 74.96875 C 170.921875 75.023438 171.078125 75.042969 171.230469 75.042969 C 171.960938 75.042969 172.542969 74.460938 172.542969 73.734375 C 172.542969 73.019531 171.960938 72.425781 171.230469 72.425781 C 171.164062 72.425781 171.101562 72.425781 171.042969 72.4375 L 170.285156 70.964844 C 171.210938 70.335938 171.828125 69.269531 171.828125 68.058594 C 171.828125 66.125 170.25 64.550781 168.308594 64.550781 C 168.289062 64.550781 168.277344 64.550781 168.265625 64.550781 Z M 179.335938 69.226562 L 179.929688 65.707031 C 179.941406 65.707031 179.964844 65.707031 179.976562 65.707031 C 180.988281 65.707031 181.871094 65.167969 182.367188 64.363281 L 186.445312 66.046875 C 186.390625 66.277344 186.359375 66.507812 186.359375 66.761719 C 186.359375 68.367188 187.660156 69.664062 189.269531 69.664062 C 190.878906 69.664062 192.179688 68.367188 192.179688 66.761719 C 192.179688 65.980469 191.871094 65.277344 191.375 64.75 L 193.28125 62.296875 C 193.425781 62.351562 193.578125 62.375 193.734375 62.375 C 193.921875 62.375 194.097656 62.339844 194.261719 62.261719 L 196.621094 64.957031 C 196.070312 65.5625 195.742188 66.375 195.742188 67.257812 C 195.742188 68.148438 196.082031 68.949219 196.632812 69.566406 L 193.46875 73.21875 C 193.082031 72.988281 192.640625 72.855469 192.15625 72.855469 C 191.242188 72.855469 190.449219 73.339844 189.996094 74.066406 L 187.007812 72.878906 C 187.007812 72.855469 187.007812 72.832031 187.007812 72.8125 C 187.007812 72.085938 186.425781 71.503906 185.695312 71.503906 C 185.113281 71.503906 184.617188 71.886719 184.449219 72.425781 L 182.167969 72.492188 C 181.960938 70.917969 180.824219 69.65625 179.324219 69.226562 Z M 189.554688 57.257812 L 192.53125 60.382812 C 192.433594 60.570312 192.367188 60.789062 192.367188 61.019531 C 192.367188 61.296875 192.453125 61.558594 192.597656 61.777344 L 190.691406 64.230469 C 190.273438 63.988281 189.777344 63.859375 189.257812 63.859375 C 188.199219 63.859375 187.273438 64.429688 186.765625 65.265625 L 182.6875 63.570312 C 182.742188 63.363281 182.765625 63.132812 182.765625 62.902344 C 182.765625 62.1875 182.488281 61.539062 182.046875 61.042969 L 185.046875 57.414062 C 185.664062 57.820312 186.390625 58.050781 187.183594 58.050781 C 188.078125 58.050781 188.894531 57.753906 189.554688 57.246094 Z M 206.855469 65.210938 L 205.863281 61.777344 C 206.433594 61.539062 206.917969 61.140625 207.285156 60.644531 L 211.011719 62.726562 C 210.890625 63.03125 210.824219 63.375 210.824219 63.726562 C 210.824219 63.96875 210.855469 64.199219 210.910156 64.429688 L 207.890625 65.695312 C 207.636719 65.398438 207.273438 65.210938 206.855469 65.199219 Z M 200.085938 96.105469 L 199.5 99.714844 C 198.726562 99.800781 198.121094 100.460938 198.121094 101.253906 C 198.121094 101.980469 198.617188 102.585938 199.289062 102.761719 L 199.34375 105.488281 C 199.324219 105.5 199.289062 105.511719 199.269531 105.519531 L 197.339844 103.914062 C 197.425781 103.730469 197.472656 103.519531 197.472656 103.300781 C 197.472656 102.507812 196.863281 101.859375 196.09375 101.78125 L 195.761719 99.957031 C 196.863281 99.582031 197.660156 98.539062 197.660156 97.316406 C 197.660156 96.808594 197.527344 96.335938 197.285156 95.929688 L 198.351562 95.082031 C 198.828125 95.554688 199.421875 95.917969 200.09375 96.09375 Z M 165.960938 70.667969 L 162.996094 74.769531 C 162.753906 74.667969 162.488281 74.605469 162.214844 74.605469 C 161.132812 74.605469 160.25 75.484375 160.25 76.5625 C 160.25 77.113281 160.484375 77.617188 160.855469 77.96875 L 157.757812 83.007812 C 157.375 82.832031 156.945312 82.742188 156.492188 82.742188 C 156.457031 82.742188 156.4375 82.742188 156.402344 82.742188 L 156.160156 81.257812 C 157.339844 80.882812 158.1875 79.785156 158.1875 78.496094 C 158.1875 77.175781 157.308594 76.066406 156.09375 75.714844 L 156.269531 74.429688 C 156.324219 74.429688 156.382812 74.429688 156.449219 74.429688 C 158.796875 74.429688 160.703125 72.523438 160.703125 70.183594 C 160.703125 70.074219 160.703125 69.972656 160.691406 69.863281 L 164.980469 69.117188 C 165.167969 69.71875 165.511719 70.257812 165.960938 70.675781 Z M 169.179688 79.222656 C 169.179688 77.847656 170.304688 76.726562 171.683594 76.726562 C 173.0625 76.726562 174.1875 77.847656 174.1875 79.222656 C 174.1875 80.597656 173.0625 81.71875 171.683594 81.71875 C 170.304688 81.71875 169.179688 80.597656 169.179688 79.222656 Z M 171.859375 62.472656 C 171.859375 61.746094 172.445312 61.164062 173.171875 61.164062 C 173.898438 61.164062 174.484375 61.746094 174.484375 62.472656 C 174.484375 63.1875 173.898438 63.78125 173.171875 63.78125 C 172.457031 63.78125 171.859375 63.199219 171.859375 62.472656 Z M 171.859375 62.472656 " clip-rule="evenodd"/></clipPath><linearGradient x1="39.985145" gradientTransform="matrix(1.102498, 0, 0, 1.099876, 152.191748, 50.274588)" y1="-0.154481" x2="39.673595" gradientUnits="userSpaceOnUse" y2="52.365335" xlink:type="simple" xlink:actuate="onLoad" id="id4" xlink:show="other"><stop stop-opacity="1" stop-color="rgb(0%, 68.598938%, 93.699646%)" offset="0"/><stop stop-opacity="1" stop-color="rgb(0%, 68.598938%, 93.699646%)" offset="0.00726688"/><stop stop-opacity="1" stop-color="rgb(0%, 68.598938%, 93.699646%)" offset="0.0625"/><stop stop-opacity="1" stop-color="rgb(0%, 68.598938%, 93.699646%)" offset="0.09375"/><stop stop-opacity="1" stop-color="rgb(0%, 68.598938%, 93.699646%)" offset="0.109375"/><stop stop-opacity="1" stop-color="rgb(0.25177%, 68.505859%, 93.452454%)" offset="0.113281"/><stop stop-opacity="1" stop-color="rgb(0.50354%, 68.414307%, 93.206787%)" offset="0.117188"/><stop stop-opacity="1" stop-color="rgb(0.953674%, 68.247986%, 92.767334%)" offset="0.121094"/><stop stop-opacity="1" stop-color="rgb(1.403809%, 68.083191%, 92.329407%)" offset="0.125"/><stop stop-opacity="1" stop-color="rgb(1.852417%, 67.918396%, 91.891479%)" offset="0.128906"/><stop stop-opacity="1" stop-color="rgb(2.302551%, 67.753601%, 91.453552%)" offset="0.132813"/><stop stop-opacity="1" stop-color="rgb(2.752686%, 67.58728%, 91.014099%)" offset="0.136719"/><stop stop-opacity="1" stop-color="rgb(3.20282%, 67.422485%, 90.576172%)" offset="0.140625"/><stop stop-opacity="1" stop-color="rgb(3.652954%, 67.256165%, 90.136719%)" offset="0.144531"/><stop stop-opacity="1" stop-color="rgb(4.103088%, 67.09137%, 89.698792%)" offset="0.148438"/><stop stop-opacity="1" stop-color="rgb(4.551697%, 66.926575%, 89.259338%)" offset="0.152344"/><stop stop-opacity="1" stop-color="rgb(5.001831%, 66.76178%, 88.821411%)" offset="0.15625"/><stop stop-opacity="1" stop-color="rgb(5.451965%, 66.595459%, 88.381958%)" offset="0.160156"/><stop stop-opacity="1" stop-color="rgb(5.9021%, 66.430664%, 87.944031%)" offset="0.164063"/><stop stop-opacity="1" stop-color="rgb(6.350708%, 66.265869%, 87.504578%)" offset="0.167969"/><stop stop-opacity="1" stop-color="rgb(6.800842%, 66.101074%, 87.06665%)" offset="0.171875"/><stop stop-opacity="1" stop-color="rgb(7.250977%, 65.934753%, 86.627197%)" offset="0.175781"/><stop stop-opacity="1" stop-color="rgb(7.701111%, 65.769958%, 86.18927%)" offset="0.179688"/><stop stop-opacity="1" stop-color="rgb(8.151245%, 65.605164%, 85.751343%)" offset="0.183594"/><stop stop-opacity="1" stop-color="rgb(8.601379%, 65.440369%, 85.313416%)" offset="0.1875"/><stop stop-opacity="1" stop-color="rgb(9.049988%, 65.274048%, 84.873962%)" offset="0.191406"/><stop stop-opacity="1" stop-color="rgb(9.500122%, 65.109253%, 84.436035%)" offset="0.195312"/><stop stop-opacity="1" stop-color="rgb(9.950256%, 64.942932%, 83.996582%)" offset="0.199219"/><stop stop-opacity="1" stop-color="rgb(10.400391%, 64.778137%, 83.558655%)" offset="0.203125"/><stop stop-opacity="1" stop-color="rgb(10.848999%, 64.613342%, 83.119202%)" offset="0.207031"/><stop stop-opacity="1" stop-color="rgb(11.299133%, 64.448547%, 82.681274%)" offset="0.210938"/><stop stop-opacity="1" stop-color="rgb(11.749268%, 64.282227%, 82.241821%)" offset="0.214844"/><stop stop-opacity="1" stop-color="rgb(12.199402%, 64.117432%, 81.803894%)" offset="0.21875"/><stop stop-opacity="1" stop-color="rgb(12.64801%, 63.952637%, 81.364441%)" offset="0.222656"/><stop stop-opacity="1" stop-color="rgb(13.098145%, 63.787842%, 80.926514%)" offset="0.226563"/><stop stop-opacity="1" stop-color="rgb(13.548279%, 63.621521%, 80.487061%)" offset="0.230469"/><stop stop-opacity="1" stop-color="rgb(13.998413%, 63.456726%, 80.049133%)" offset="0.234375"/><stop stop-opacity="1" stop-color="rgb(14.448547%, 63.291931%, 79.60968%)" offset="0.238281"/><stop stop-opacity="1" stop-color="rgb(14.898682%, 63.127136%, 79.171753%)" offset="0.242188"/><stop stop-opacity="1" stop-color="rgb(15.34729%, 62.960815%, 78.733826%)" offset="0.246094"/><stop stop-opacity="1" stop-color="rgb(15.797424%, 62.796021%, 78.295898%)" offset="0.25"/><stop stop-opacity="1" stop-color="rgb(16.247559%, 62.6297%, 77.856445%)" offset="0.253906"/><stop stop-opacity="1" stop-color="rgb(16.697693%, 62.464905%, 77.418518%)" offset="0.257812"/><stop stop-opacity="1" stop-color="rgb(17.146301%, 62.30011%, 76.979065%)" offset="0.261719"/><stop stop-opacity="1" stop-color="rgb(17.596436%, 62.135315%, 76.541138%)" offset="0.265625"/><stop stop-opacity="1" stop-color="rgb(18.04657%, 61.968994%, 76.101685%)" offset="0.269531"/><stop stop-opacity="1" stop-color="rgb(18.496704%, 61.804199%, 75.663757%)" offset="0.273438"/><stop stop-opacity="1" stop-color="rgb(18.946838%, 61.639404%, 75.224304%)" offset="0.277344"/><stop stop-opacity="1" stop-color="rgb(19.396973%, 61.474609%, 74.786377%)" offset="0.28125"/><stop stop-opacity="1" stop-color="rgb(19.845581%, 61.308289%, 74.346924%)" offset="0.285156"/><stop stop-opacity="1" stop-color="rgb(20.295715%, 61.143494%, 73.908997%)" offset="0.289062"/><stop stop-opacity="1" stop-color="rgb(20.74585%, 60.978699%, 73.469543%)" offset="0.292969"/><stop stop-opacity="1" stop-color="rgb(21.195984%, 60.813904%, 73.031616%)" offset="0.296875"/><stop stop-opacity="1" stop-color="rgb(21.644592%, 60.647583%, 72.593689%)" offset="0.300781"/><stop stop-opacity="1" stop-color="rgb(22.094727%, 60.482788%, 72.155762%)" offset="0.304688"/><stop stop-opacity="1" stop-color="rgb(22.544861%, 60.316467%, 71.716309%)" offset="0.308594"/><stop stop-opacity="1" stop-color="rgb(22.994995%, 60.151672%, 71.278381%)" offset="0.3125"/><stop stop-opacity="1" stop-color="rgb(23.443604%, 59.986877%, 70.838928%)" offset="0.316406"/><stop stop-opacity="1" stop-color="rgb(23.893738%, 59.822083%, 70.401001%)" offset="0.320312"/><stop stop-opacity="1" stop-color="rgb(24.343872%, 59.655762%, 69.961548%)" offset="0.324219"/><stop stop-opacity="1" stop-color="rgb(24.794006%, 59.490967%, 69.523621%)" offset="0.328125"/><stop stop-opacity="1" stop-color="rgb(25.244141%, 59.326172%, 69.084167%)" offset="0.332031"/><stop stop-opacity="1" stop-color="rgb(25.694275%, 59.161377%, 68.64624%)" offset="0.335938"/><stop stop-opacity="1" stop-color="rgb(26.142883%, 58.995056%, 68.206787%)" offset="0.339844"/><stop stop-opacity="1" stop-color="rgb(26.593018%, 58.830261%, 67.76886%)" offset="0.34375"/><stop stop-opacity="1" stop-color="rgb(27.043152%, 58.665466%, 67.329407%)" offset="0.347656"/><stop stop-opacity="1" stop-color="rgb(27.493286%, 58.500671%, 66.891479%)" offset="0.351562"/><stop stop-opacity="1" stop-color="rgb(27.941895%, 58.334351%, 66.453552%)" offset="0.355469"/><stop stop-opacity="1" stop-color="rgb(28.392029%, 58.169556%, 66.015625%)" offset="0.359375"/><stop stop-opacity="1" stop-color="rgb(28.842163%, 58.003235%, 65.576172%)" offset="0.363281"/><stop stop-opacity="1" stop-color="rgb(29.292297%, 57.83844%, 65.138245%)" offset="0.367188"/><stop stop-opacity="1" stop-color="rgb(29.742432%, 57.673645%, 64.698792%)" offset="0.371094"/><stop stop-opacity="1" stop-color="rgb(30.192566%, 57.50885%, 64.260864%)" offset="0.375"/><stop stop-opacity="1" stop-color="rgb(30.641174%, 57.342529%, 63.821411%)" offset="0.378906"/><stop stop-opacity="1" stop-color="rgb(31.091309%, 57.177734%, 63.383484%)" offset="0.382812"/><stop stop-opacity="1" stop-color="rgb(31.541443%, 57.012939%, 62.944031%)" offset="0.386719"/><stop stop-opacity="1" stop-color="rgb(31.991577%, 56.848145%, 62.506104%)" offset="0.390625"/><stop stop-opacity="1" stop-color="rgb(32.440186%, 56.681824%, 62.06665%)" offset="0.394531"/><stop stop-opacity="1" stop-color="rgb(32.89032%, 56.517029%, 61.628723%)" offset="0.398438"/><stop stop-opacity="1" stop-color="rgb(33.340454%, 56.352234%, 61.18927%)" offset="0.402344"/><stop stop-opacity="1" stop-color="rgb(33.790588%, 56.187439%, 60.751343%)" offset="0.40625"/><stop stop-opacity="1" stop-color="rgb(34.239197%, 56.021118%, 60.313416%)" offset="0.410156"/><stop stop-opacity="1" stop-color="rgb(34.689331%, 55.856323%, 59.875488%)" offset="0.414062"/><stop stop-opacity="1" stop-color="rgb(35.139465%, 55.691528%, 59.436035%)" offset="0.417969"/><stop stop-opacity="1" stop-color="rgb(35.5896%, 55.526733%, 58.998108%)" offset="0.421875"/><stop stop-opacity="1" stop-color="rgb(36.039734%, 55.360413%, 58.558655%)" offset="0.425781"/><stop stop-opacity="1" stop-color="rgb(36.489868%, 55.195618%, 58.120728%)" offset="0.429688"/><stop stop-opacity="1" stop-color="rgb(36.938477%, 55.029297%, 57.681274%)" offset="0.433594"/><stop stop-opacity="1" stop-color="rgb(37.388611%, 54.864502%, 57.243347%)" offset="0.4375"/><stop stop-opacity="1" stop-color="rgb(37.838745%, 54.699707%, 56.803894%)" offset="0.441406"/><stop stop-opacity="1" stop-color="rgb(38.288879%, 54.534912%, 56.365967%)" offset="0.445312"/><stop stop-opacity="1" stop-color="rgb(38.737488%, 54.368591%, 55.926514%)" offset="0.449219"/><stop stop-opacity="1" stop-color="rgb(39.187622%, 54.203796%, 55.488586%)" offset="0.453125"/><stop stop-opacity="1" stop-color="rgb(39.637756%, 54.039001%, 55.049133%)" offset="0.457031"/><stop stop-opacity="1" stop-color="rgb(40.087891%, 53.874207%, 54.611206%)" offset="0.460938"/><stop stop-opacity="1" stop-color="rgb(40.538025%, 53.707886%, 54.173279%)" offset="0.464844"/><stop stop-opacity="1" stop-color="rgb(40.988159%, 53.543091%, 53.735352%)" offset="0.46875"/><stop stop-opacity="1" stop-color="rgb(41.436768%, 53.378296%, 53.295898%)" offset="0.472656"/><stop stop-opacity="1" stop-color="rgb(41.886902%, 53.213501%, 52.857971%)" offset="0.476563"/><stop stop-opacity="1" stop-color="rgb(42.337036%, 53.04718%, 52.418518%)" offset="0.480469"/><stop stop-opacity="1" stop-color="rgb(42.78717%, 52.882385%, 51.980591%)" offset="0.484375"/><stop stop-opacity="1" stop-color="rgb(43.235779%, 52.716064%, 51.541138%)" offset="0.488281"/><stop stop-opacity="1" stop-color="rgb(43.685913%, 52.55127%, 51.10321%)" offset="0.492188"/><stop stop-opacity="1" stop-color="rgb(44.136047%, 52.386475%, 50.663757%)" offset="0.496094"/><stop stop-opacity="1" stop-color="rgb(44.586182%, 52.22168%, 50.22583%)" offset="0.5"/><stop stop-opacity="1" stop-color="rgb(45.03479%, 52.055359%, 49.786377%)" offset="0.503906"/><stop stop-opacity="1" stop-color="rgb(45.484924%, 51.890564%, 49.34845%)" offset="0.507812"/><stop stop-opacity="1" stop-color="rgb(45.935059%, 51.725769%, 48.908997%)" offset="0.511719"/><stop stop-opacity="1" stop-color="rgb(46.385193%, 51.560974%, 48.471069%)" offset="0.515625"/><stop stop-opacity="1" stop-color="rgb(46.835327%, 51.394653%, 48.033142%)" offset="0.519531"/><stop stop-opacity="1" stop-color="rgb(47.285461%, 51.229858%, 47.595215%)" offset="0.523438"/><stop stop-opacity="1" stop-color="rgb(47.73407%, 51.065063%, 47.155762%)" offset="0.527344"/><stop stop-opacity="1" stop-color="rgb(48.184204%, 50.900269%, 46.717834%)" offset="0.53125"/><stop stop-opacity="1" stop-color="rgb(48.634338%, 50.733948%, 46.278381%)" offset="0.535156"/><stop stop-opacity="1" stop-color="rgb(49.084473%, 50.569153%, 45.840454%)" offset="0.539062"/><stop stop-opacity="1" stop-color="rgb(49.533081%, 50.402832%, 45.401001%)" offset="0.542969"/><stop stop-opacity="1" stop-color="rgb(49.983215%, 50.238037%, 44.963074%)" offset="0.546875"/><stop stop-opacity="1" stop-color="rgb(50.43335%, 50.073242%, 44.523621%)" offset="0.550781"/><stop stop-opacity="1" stop-color="rgb(50.883484%, 49.908447%, 44.085693%)" offset="0.554688"/><stop stop-opacity="1" stop-color="rgb(51.332092%, 49.742126%, 43.64624%)" offset="0.558594"/><stop stop-opacity="1" stop-color="rgb(51.782227%, 49.577332%, 43.208313%)" offset="0.5625"/><stop stop-opacity="1" stop-color="rgb(52.232361%, 49.412537%, 42.76886%)" offset="0.566406"/><stop stop-opacity="1" stop-color="rgb(52.682495%, 49.247742%, 42.330933%)" offset="0.570313"/><stop stop-opacity="1" stop-color="rgb(53.132629%, 49.081421%, 41.893005%)" offset="0.574219"/><stop stop-opacity="1" stop-color="rgb(53.582764%, 48.916626%, 41.455078%)" offset="0.578125"/><stop stop-opacity="1" stop-color="rgb(54.031372%, 48.751831%, 41.015625%)" offset="0.582031"/><stop stop-opacity="1" stop-color="rgb(54.481506%, 48.587036%, 40.577698%)" offset="0.585938"/><stop stop-opacity="1" stop-color="rgb(54.931641%, 48.420715%, 40.138245%)" offset="0.589844"/><stop stop-opacity="1" stop-color="rgb(55.381775%, 48.25592%, 39.700317%)" offset="0.59375"/><stop stop-opacity="1" stop-color="rgb(55.830383%, 48.0896%, 39.260864%)" offset="0.597656"/><stop stop-opacity="1" stop-color="rgb(56.280518%, 47.924805%, 38.822937%)" offset="0.601562"/><stop stop-opacity="1" stop-color="rgb(56.730652%, 47.76001%, 38.383484%)" offset="0.605469"/><stop stop-opacity="1" stop-color="rgb(57.180786%, 47.595215%, 37.945557%)" offset="0.609375"/><stop stop-opacity="1" stop-color="rgb(57.63092%, 47.428894%, 37.506104%)" offset="0.613281"/><stop stop-opacity="1" stop-color="rgb(58.081055%, 47.264099%, 37.068176%)" offset="0.617188"/><stop stop-opacity="1" stop-color="rgb(58.529663%, 47.099304%, 36.628723%)" offset="0.621094"/><stop stop-opacity="1" stop-color="rgb(58.979797%, 46.934509%, 36.190796%)" offset="0.625"/><stop stop-opacity="1" stop-color="rgb(59.429932%, 46.768188%, 35.752869%)" offset="0.628906"/><stop stop-opacity="1" stop-color="rgb(59.880066%, 46.603394%, 35.314941%)" offset="0.632813"/><stop stop-opacity="1" stop-color="rgb(60.328674%, 46.438599%, 34.875488%)" offset="0.636719"/><stop stop-opacity="1" stop-color="rgb(60.778809%, 46.273804%, 34.437561%)" offset="0.640625"/><stop stop-opacity="1" stop-color="rgb(61.228943%, 46.107483%, 33.998108%)" offset="0.644531"/><stop stop-opacity="1" stop-color="rgb(61.679077%, 45.942688%, 33.560181%)" offset="0.648438"/><stop stop-opacity="1" stop-color="rgb(62.127686%, 45.776367%, 33.120728%)" offset="0.652344"/><stop stop-opacity="1" stop-color="rgb(62.57782%, 45.611572%, 32.6828%)" offset="0.65625"/><stop stop-opacity="1" stop-color="rgb(63.027954%, 45.446777%, 32.243347%)" offset="0.660156"/><stop stop-opacity="1" stop-color="rgb(63.478088%, 45.281982%, 31.80542%)" offset="0.664062"/><stop stop-opacity="1" stop-color="rgb(63.928223%, 45.115662%, 31.365967%)" offset="0.667969"/><stop stop-opacity="1" stop-color="rgb(64.378357%, 44.950867%, 30.92804%)" offset="0.671875"/><stop stop-opacity="1" stop-color="rgb(64.826965%, 44.786072%, 30.488586%)" offset="0.675781"/><stop stop-opacity="1" stop-color="rgb(65.2771%, 44.621277%, 30.050659%)" offset="0.679688"/><stop stop-opacity="1" stop-color="rgb(65.727234%, 44.454956%, 29.612732%)" offset="0.683594"/><stop stop-opacity="1" stop-color="rgb(66.177368%, 44.290161%, 29.174805%)" offset="0.6875"/><stop stop-opacity="1" stop-color="rgb(66.625977%, 44.125366%, 28.735352%)" offset="0.691406"/><stop stop-opacity="1" stop-color="rgb(67.076111%, 43.960571%, 28.297424%)" offset="0.695312"/><stop stop-opacity="1" stop-color="rgb(67.526245%, 43.79425%, 27.857971%)" offset="0.699219"/><stop stop-opacity="1" stop-color="rgb(67.976379%, 43.629456%, 27.420044%)" offset="0.703125"/><stop stop-opacity="1" stop-color="rgb(68.426514%, 43.463135%, 26.980591%)" offset="0.707031"/><stop stop-opacity="1" stop-color="rgb(68.876648%, 43.29834%, 26.542664%)" offset="0.710938"/><stop stop-opacity="1" stop-color="rgb(69.325256%, 43.133545%, 26.10321%)" offset="0.714844"/><stop stop-opacity="1" stop-color="rgb(69.775391%, 42.96875%, 25.665283%)" offset="0.71875"/><stop stop-opacity="1" stop-color="rgb(70.225525%, 42.802429%, 25.22583%)" offset="0.722656"/><stop stop-opacity="1" stop-color="rgb(70.675659%, 42.637634%, 24.787903%)" offset="0.726562"/><stop stop-opacity="1" stop-color="rgb(71.124268%, 42.472839%, 24.34845%)" offset="0.730469"/><stop stop-opacity="1" stop-color="rgb(71.574402%, 42.308044%, 23.910522%)" offset="0.734375"/><stop stop-opacity="1" stop-color="rgb(72.024536%, 42.141724%, 23.472595%)" offset="0.738281"/><stop stop-opacity="1" stop-color="rgb(72.47467%, 41.976929%, 23.034668%)" offset="0.742188"/><stop stop-opacity="1" stop-color="rgb(72.923279%, 41.812134%, 22.595215%)" offset="0.746094"/><stop stop-opacity="1" stop-color="rgb(73.373413%, 41.647339%, 22.157288%)" offset="0.75"/><stop stop-opacity="1" stop-color="rgb(73.823547%, 41.481018%, 21.717834%)" offset="0.753906"/><stop stop-opacity="1" stop-color="rgb(74.273682%, 41.316223%, 21.279907%)" offset="0.757812"/><stop stop-opacity="1" stop-color="rgb(74.723816%, 41.149902%, 20.840454%)" offset="0.761719"/><stop stop-opacity="1" stop-color="rgb(75.17395%, 40.985107%, 20.402527%)" offset="0.765625"/><stop stop-opacity="1" stop-color="rgb(75.622559%, 40.820312%, 19.963074%)" offset="0.769531"/><stop stop-opacity="1" stop-color="rgb(76.072693%, 40.655518%, 19.525146%)" offset="0.773438"/><stop stop-opacity="1" stop-color="rgb(76.522827%, 40.489197%, 19.085693%)" offset="0.777344"/><stop stop-opacity="1" stop-color="rgb(76.972961%, 40.324402%, 18.647766%)" offset="0.78125"/><stop stop-opacity="1" stop-color="rgb(77.42157%, 40.159607%, 18.208313%)" offset="0.785156"/><stop stop-opacity="1" stop-color="rgb(77.871704%, 39.994812%, 17.770386%)" offset="0.789062"/><stop stop-opacity="1" stop-color="rgb(78.321838%, 39.828491%, 17.332458%)" offset="0.792969"/><stop stop-opacity="1" stop-color="rgb(78.771973%, 39.663696%, 16.894531%)" offset="0.796875"/><stop stop-opacity="1" stop-color="rgb(79.222107%, 39.498901%, 16.455078%)" offset="0.800781"/><stop stop-opacity="1" stop-color="rgb(79.672241%, 39.334106%, 16.017151%)" offset="0.804688"/><stop stop-opacity="1" stop-color="rgb(80.12085%, 39.167786%, 15.577698%)" offset="0.808594"/><stop stop-opacity="1" stop-color="rgb(80.570984%, 39.002991%, 15.139771%)" offset="0.8125"/><stop stop-opacity="1" stop-color="rgb(81.021118%, 38.83667%, 14.700317%)" offset="0.816406"/><stop stop-opacity="1" stop-color="rgb(81.471252%, 38.671875%, 14.26239%)" offset="0.820312"/><stop stop-opacity="1" stop-color="rgb(81.919861%, 38.50708%, 13.822937%)" offset="0.824219"/><stop stop-opacity="1" stop-color="rgb(82.369995%, 38.342285%, 13.38501%)" offset="0.828125"/><stop stop-opacity="1" stop-color="rgb(82.820129%, 38.175964%, 12.945557%)" offset="0.832031"/><stop stop-opacity="1" stop-color="rgb(83.270264%, 38.011169%, 12.507629%)" offset="0.835937"/><stop stop-opacity="1" stop-color="rgb(83.718872%, 37.846375%, 12.068176%)" offset="0.839844"/><stop stop-opacity="1" stop-color="rgb(84.169006%, 37.68158%, 11.630249%)" offset="0.84375"/><stop stop-opacity="1" stop-color="rgb(84.619141%, 37.515259%, 11.190796%)" offset="0.847656"/><stop stop-opacity="1" stop-color="rgb(85.069275%, 37.350464%, 10.752869%)" offset="0.851563"/><stop stop-opacity="1" stop-color="rgb(85.519409%, 37.185669%, 10.314941%)" offset="0.855469"/><stop stop-opacity="1" stop-color="rgb(85.969543%, 37.020874%, 9.877014%)" offset="0.859375"/><stop stop-opacity="1" stop-color="rgb(86.418152%, 36.854553%, 9.437561%)" offset="0.863281"/><stop stop-opacity="1" stop-color="rgb(86.868286%, 36.689758%, 8.999634%)" offset="0.867188"/><stop stop-opacity="1" stop-color="rgb(87.31842%, 36.524963%, 8.560181%)" offset="0.871094"/><stop stop-opacity="1" stop-color="rgb(87.768555%, 36.360168%, 8.122253%)" offset="0.875"/><stop stop-opacity="1" stop-color="rgb(88.217163%, 36.193848%, 7.6828%)" offset="0.878906"/><stop stop-opacity="1" stop-color="rgb(88.667297%, 36.029053%, 7.244873%)" offset="0.882812"/><stop stop-opacity="1" stop-color="rgb(89.117432%, 35.862732%, 6.80542%)" offset="0.886719"/><stop stop-opacity="1" stop-color="rgb(89.567566%, 35.697937%, 6.367493%)" offset="0.890625"/><stop stop-opacity="1" stop-color="rgb(90.0177%, 35.533142%, 5.92804%)" offset="0.894531"/><stop stop-opacity="1" stop-color="rgb(90.467834%, 35.368347%, 5.490112%)" offset="0.898438"/><stop stop-opacity="1" stop-color="rgb(90.916443%, 35.202026%, 5.050659%)" offset="0.902344"/><stop stop-opacity="1" stop-color="rgb(91.366577%, 35.037231%, 4.612732%)" offset="0.90625"/><stop stop-opacity="1" stop-color="rgb(91.816711%, 34.872437%, 4.174805%)" offset="0.910156"/><stop stop-opacity="1" stop-color="rgb(92.266846%, 34.707642%, 3.736877%)" offset="0.914062"/><stop stop-opacity="1" stop-color="rgb(92.715454%, 34.541321%, 3.297424%)" offset="0.917969"/><stop stop-opacity="1" stop-color="rgb(93.165588%, 34.376526%, 2.859497%)" offset="0.921875"/><stop stop-opacity="1" stop-color="rgb(93.615723%, 34.211731%, 2.420044%)" offset="0.925781"/><stop stop-opacity="1" stop-color="rgb(94.065857%, 34.046936%, 1.982117%)" offset="0.929688"/><stop stop-opacity="1" stop-color="rgb(94.514465%, 33.880615%, 1.542664%)" offset="0.933594"/><stop stop-opacity="1" stop-color="rgb(94.9646%, 33.71582%, 1.104736%)" offset="0.9375"/><stop stop-opacity="1" stop-color="rgb(95.414734%, 33.5495%, 0.665283%)" offset="0.941406"/><stop stop-opacity="1" stop-color="rgb(95.864868%, 33.384705%, 0.227356%)" offset="0.945313"/><stop stop-opacity="1" stop-color="rgb(95.982361%, 33.34198%, 0.112915%)" offset="0.953125"/><stop stop-opacity="1" stop-color="rgb(96.099854%, 33.299255%, 0%)" offset="0.96875"/><stop stop-opacity="1" stop-color="rgb(96.099854%, 33.299255%, 0%)" offset="0.992733"/><stop stop-opacity="1" stop-color="rgb(96.099854%, 33.299255%, 0%)" offset="1"/></linearGradient><clipPath id="id5"><path d="M 149.769531 5.742188 L 225.183594 5.742188 L 225.183594 59.390625 L 149.769531 59.390625 Z M 149.769531 5.742188 " clip-rule="nonzero"/></clipPath></defs><g fill="rgb(0%, 0%, 0%)" fill-opacity="1"><g transform="translate(15.761741, 105.341353)"><g><path d="M 7.890625 -51.875 C 10.484375 -51.769531 12.050781 -51.71875 12.59375 -51.71875 L 15.40625 -51.71875 C 16.769531 -51.71875 17.867188 -51.820312 18.703125 -52.03125 L 18.671875 0 L 7.890625 0 Z M 7.890625 -51.875 "/></g></g></g><g fill="rgb(0%, 0%, 0%)" fill-opacity="1"><g transform="translate(53.510143, 105.341353)"><g><path d="M 5.953125 -51.984375 C 9.554688 -52.453125 13.25 -52.6875 17.03125 -52.6875 C 24.082031 -52.6875 29.441406 -51.035156 33.109375 -47.734375 C 36.773438 -44.429688 38.609375 -39.484375 38.609375 -32.890625 C 38.609375 -27.015625 36.601562 -22.363281 32.59375 -18.9375 C 28.832031 -15.71875 23.992188 -14.109375 18.078125 -14.109375 C 17.410156 -14.109375 16.671875 -14.148438 15.859375 -14.234375 L 15.859375 0 L 5.953125 0 Z M 18.203125 -43.3125 C 17.421875 -43.3125 16.640625 -43.289062 15.859375 -43.25 L 15.859375 -22.78125 C 16.691406 -22.675781 17.703125 -22.625 18.890625 -22.625 C 20.085938 -22.625 21.332031 -22.878906 22.625 -23.390625 C 23.925781 -23.898438 25.019531 -24.609375 25.90625 -25.515625 C 27.738281 -27.398438 28.65625 -29.882812 28.65625 -32.96875 C 28.65625 -39.863281 25.171875 -43.3125 18.203125 -43.3125 Z M 18.203125 -43.3125 "/></g></g></g><g fill="rgb(0%, 0%, 0%)" fill-opacity="1"><g transform="translate(104.557509, 105.341353)"><g><path d="M 5.953125 -51.984375 C 9.554688 -52.453125 13.25 -52.6875 17.03125 -52.6875 C 24.082031 -52.6875 29.441406 -51.035156 33.109375 -47.734375 C 36.773438 -44.429688 38.609375 -39.484375 38.609375 -32.890625 C 38.609375 -27.015625 36.601562 -22.363281 32.59375 -18.9375 C 28.832031 -15.71875 23.992188 -14.109375 18.078125 -14.109375 C 17.410156 -14.109375 16.671875 -14.148438 15.859375 -14.234375 L 15.859375 0 L 5.953125 0 Z M 18.203125 -43.3125 C 17.421875 -43.3125 16.640625 -43.289062 15.859375 -43.25 L 15.859375 -22.78125 C 16.691406 -22.675781 17.703125 -22.625 18.890625 -22.625 C 20.085938 -22.625 21.332031 -22.878906 22.625 -23.390625 C 23.925781 -23.898438 25.019531 -24.609375 25.90625 -25.515625 C 27.738281 -27.398438 28.65625 -29.882812 28.65625 -32.96875 C 28.65625 -39.863281 25.171875 -43.3125 18.203125 -43.3125 Z M 18.203125 -43.3125 "/></g></g></g><g fill="rgb(0%, 0%, 0%)" fill-opacity="1"><g transform="translate(155.60116, 105.341353)"><g/></g></g><g fill="rgb(0%, 0%, 0%)" fill-opacity="1"><g transform="translate(193.155133, 105.341353)"><g/></g></g><g fill="rgb(0%, 0%, 0%)" fill-opacity="1"><g transform="translate(230.700975, 105.341353)"><g><path d="M 14.265625 0 C 10.460938 0 7.9375 0.078125 6.6875 0.234375 L 6.6875 -51.953125 C 7.3125 -51.796875 8.601562 -51.71875 10.5625 -51.71875 C 12.519531 -51.71875 14.789062 -51.769531 17.375 -51.875 L 17.375 -9.328125 L 25.4375 -9.328125 C 27.769531 -9.328125 29.632812 -9.40625 31.03125 -9.5625 C 30.851562 -3.5 30.765625 -0.347656 30.765625 -0.109375 L 30.765625 0.265625 C 28.222656 0.0859375 23.957031 0 17.96875 0 Z M 14.265625 0 "/></g></g></g><g fill="rgb(0%, 0%, 0%)" fill-opacity="1"><g transform="translate(275.098858, 105.341353)"><g><path d="M 7.890625 -51.875 C 10.484375 -51.769531 12.050781 -51.71875 12.59375 -51.71875 L 15.40625 -51.71875 C 16.769531 -51.71875 17.867188 -51.820312 18.703125 -52.03125 L 18.671875 0 L 7.890625 0 Z M 7.890625 -51.875 "/></g></g></g><g fill="rgb(0%, 0%, 0%)" fill-opacity="1"><g transform="translate(312.847261, 105.341353)"><g><path d="M 37.921875 -48.84375 L 37.171875 -37.40625 L 36.90625 -37.328125 C 34.988281 -40.203125 31.722656 -42.070312 27.109375 -42.9375 C 25.648438 -43.21875 24.253906 -43.359375 22.921875 -43.359375 C 21.585938 -43.359375 20.445312 -43.238281 19.5 -43 C 18.550781 -42.769531 17.742188 -42.4375 17.078125 -42 C 15.648438 -41.0625 14.9375 -39.84375 14.9375 -38.34375 C 14.9375 -36.375 15.554688 -34.894531 16.796875 -33.90625 C 18.347656 -32.71875 20.925781 -31.882812 24.53125 -31.40625 C 28.132812 -30.925781 31.023438 -30.269531 33.203125 -29.4375 C 35.378906 -28.601562 37.171875 -27.550781 38.578125 -26.28125 C 41.222656 -23.894531 42.546875 -20.523438 42.546875 -16.171875 C 42.546875 -10.472656 40.394531 -6.082031 36.09375 -3 C 32.40625 -0.351562 27.765625 0.96875 22.171875 0.96875 C 17.660156 0.96875 13.195312 0.113281 8.78125 -1.59375 C 7.332031 -2.164062 6.066406 -2.828125 4.984375 -3.578125 L 5.40625 -16.5625 L 5.5625 -16.6875 C 8.78125 -11.132812 14.054688 -8.359375 21.390625 -8.359375 C 26.597656 -8.359375 30.046875 -9.613281 31.734375 -12.125 C 32.304688 -12.988281 32.59375 -13.941406 32.59375 -14.984375 C 32.59375 -16.035156 32.421875 -16.90625 32.078125 -17.59375 C 31.742188 -18.28125 31.1875 -18.867188 30.40625 -19.359375 C 28.90625 -20.347656 26.378906 -21.007812 22.828125 -21.34375 C 19.273438 -21.6875 16.367188 -22.320312 14.109375 -23.25 C 11.859375 -24.1875 10.054688 -25.34375 8.703125 -26.71875 C 6.273438 -29.207031 5.0625 -32.679688 5.0625 -37.140625 C 5.0625 -41.753906 6.679688 -45.488281 9.921875 -48.34375 C 13.210938 -51.238281 17.648438 -52.6875 23.234375 -52.6875 C 28.816406 -52.6875 33.710938 -51.40625 37.921875 -48.84375 Z M 37.921875 -48.84375 "/></g></g></g><g clip-path="url(#id2)"><g clip-path="url(#id3)"><path fill="url(#id4)" d="M 152.191406 50.261719 L 152.191406 107.609375 L 223.125 107.609375 L 223.125 50.261719 Z M 152.191406 50.261719 " fill-rule="nonzero"/></g></g><g clip-path="url(#id5)"><path fill="rgb(96.078491%, 33.329773%, 0%)" d="M 158.210938 33.941406 C 159.089844 33.941406 159.800781 33.132812 159.800781 32.136719 C 159.800781 31.144531 159.089844 30.335938 158.210938 30.335938 C 157.335938 30.335938 156.625 31.144531 156.625 32.136719 C 156.625 33.132812 157.335938 33.941406 158.210938 33.941406 Z M 150.113281 31.65625 C 151.050781 30.980469 178.671875 11.234375 186.523438 6.226562 C 187.507812 5.597656 188.21875 5.5625 189.214844 6.214844 C 198.007812 11.992188 222.765625 30.132812 225.203125 31.738281 C 220.769531 34.023438 209.5625 39.671875 208.816406 39.6875 C 208.804688 39.007812 208.796875 38.332031 208.78125 37.65625 C 208.753906 36.335938 207.816406 35.089844 206.945312 34.585938 C 203.234375 32.429688 197.714844 31.332031 190.546875 31.332031 C 180.324219 31.332031 168.769531 33.707031 167.398438 34.460938 C 166.699219 34.847656 165.660156 35.90625 165.636719 37.261719 C 165.621094 38.046875 165.613281 38.832031 165.605469 39.621094 C 164.804688 39.628906 159.832031 36.96875 157.460938 35.550781 C 157.460938 35.550781 157.457031 51.84375 157.457031 51.855469 C 157.457031 51.800781 158.398438 52.054688 158.480469 52.097656 C 158.738281 52.238281 158.972656 52.453125 159.15625 52.683594 C 159.617188 53.25 159.699219 53.914062 159.734375 54.621094 C 159.804688 56.058594 159.730469 57.511719 159.730469 58.953125 C 159.730469 58.972656 159.730469 58.996094 159.730469 59.015625 C 159.730469 59.328125 159.367188 59.5 159.121094 59.308594 C 157.847656 58.296875 157.46875 58.050781 156.644531 57.414062 C 155.691406 58.054688 154.796875 58.65625 153.832031 59.304688 C 153.582031 59.476562 153.246094 59.296875 153.246094 58.996094 L 153.246094 54.542969 C 153.246094 53.144531 154.300781 51.972656 155.695312 51.816406 L 155.71875 51.8125 C 155.71875 50.328125 155.707031 37.269531 155.6875 35.230469 C 155.683594 34.789062 150.289062 32.425781 149.984375 32.230469 C 149.59375 31.980469 149.800781 31.886719 150.113281 31.65625 Z M 168.082031 35.839844 C 169.445312 35.089844 195.195312 29.535156 206.230469 35.945312 C 206.679688 36.210938 207.195312 36.945312 207.207031 37.46875 C 207.289062 41.269531 207.253906 47.808594 207.253906 52 C 193.882812 45.21875 180.597656 45.816406 167.171875 52.472656 C 167.171875 48.1875 167.144531 40.980469 167.210938 37.066406 C 167.214844 36.640625 167.695312 36.054688 168.082031 35.839844 " fill-opacity="1" fill-rule="nonzero"/></g></svg>